<?xml version="1.0" encoding="UTF-8" standalone="no"?>
<!DOCTYPE svg PUBLIC "-//W3C//DTD SVG 1.1//EN" "http://www.w3.org/Graphics/SVG/1.1/DTD/svg11.dtd">
<svg width="100%" height="100%" viewBox="0 0 66 64" version="1.1" xmlns="http://www.w3.org/2000/svg" xmlns:xlink="http://www.w3.org/1999/xlink" xml:space="preserve" xmlns:serif="http://www.serif.com/" style="fill-rule:evenodd;clip-rule:evenodd;stroke-linejoin:round;stroke-miterlimit:2;">
    <g transform="matrix(1,0,0,1,-1618.45,-911.645)">
        <g transform="matrix(1,0,0,1,-2188,50)">
            <g transform="matrix(-0.128028,0,0,-0.128028,3709.4,1111.68)">
                <g transform="matrix(1,0,0,1,-621.997,-724)">
                    <path d="M-607,2369L-571,2369L-571,2489C-567.96,2596.04 -415.705,2601.18 -411,2489L-411,2367C-392.38,2218.97 -198.792,2215.05 -176,2367L-176,2490L-213,2490L-213,2367C-214.958,2266.62 -367.815,2262.72 -373,2367L-373,2490C-382.064,2646.03 -603.551,2643.47 -606,2490L-607,2369Z" style="fill:rgb(252,129,35);fill-opacity:0.33;"/>
                </g>
                <g transform="matrix(1,0,0,1,-621.997,-734)">
                    <path d="M-648,2193L-529,2193L-529,2319C-530.307,2331.58 -534.64,2342.13 -543,2350L-572,2368L-607,2368L-634,2350C-644.171,2341.08 -648.134,2329.81 -648,2317L-648,2193ZM-545,2219C-545,2214.59 -548.585,2211 -553,2211C-557.415,2211 -561,2214.59 -561,2219L-561,2235C-561,2239.41 -557.415,2243 -553,2243C-548.585,2243 -545,2239.41 -545,2235L-545,2219ZM-569,2219C-569,2214.59 -572.585,2211 -577,2211C-581.415,2211 -585,2214.59 -585,2219L-585,2235C-585,2239.41 -581.415,2243 -577,2243C-572.585,2243 -569,2239.41 -569,2235L-569,2219ZM-592,2219C-592,2214.59 -595.585,2211 -600,2211C-604.415,2211 -608,2214.59 -608,2219L-608,2235C-608,2239.41 -604.415,2243 -600,2243C-595.585,2243 -592,2239.41 -592,2235L-592,2219ZM-616,2219C-616,2214.59 -619.585,2211 -624,2211C-628.415,2211 -632,2214.59 -632,2219L-632,2235C-632,2239.41 -628.415,2243 -624,2243C-619.585,2243 -616,2239.41 -616,2235L-616,2219Z" style="fill:rgb(252,129,35);fill-opacity:0.33;"/>
                </g>
                <g transform="matrix(1,0,0,-1,-228.997,4146)">
                    <path d="M-648,2193L-529,2193L-529,2319C-530.307,2331.58 -534.64,2342.13 -543,2350L-572,2368L-607,2368L-634,2350C-644.171,2341.08 -648.134,2329.81 -648,2317L-648,2193ZM-545,2219C-545,2214.59 -548.585,2211 -553,2211C-557.415,2211 -561,2214.59 -561,2219L-561,2235C-561,2239.41 -557.415,2243 -553,2243C-548.585,2243 -545,2239.41 -545,2235L-545,2219ZM-569,2219C-569,2214.59 -572.585,2211 -577,2211C-581.415,2211 -585,2214.59 -585,2219L-585,2235C-585,2239.41 -581.415,2243 -577,2243C-572.585,2243 -569,2239.41 -569,2235L-569,2219ZM-592,2219C-592,2214.59 -595.585,2211 -600,2211C-604.415,2211 -608,2214.59 -608,2219L-608,2235C-608,2239.41 -604.415,2243 -600,2243C-595.585,2243 -592,2239.41 -592,2235L-592,2219ZM-616,2219C-616,2214.59 -619.585,2211 -624,2211C-628.415,2211 -632,2214.59 -632,2219L-632,2235C-632,2239.41 -628.415,2243 -624,2243C-619.585,2243 -616,2239.41 -616,2235L-616,2219Z" style="fill:rgb(252,129,35);fill-opacity:0.33;"/>
                </g>
            </g>
        </g>
    </g>
</svg>
