<?xml version="1.0" encoding="UTF-8" standalone="no"?>
<!DOCTYPE svg PUBLIC "-//W3C//DTD SVG 1.1//EN" "http://www.w3.org/Graphics/SVG/1.1/DTD/svg11.dtd">
<svg width="100%" height="100%" viewBox="0 0 32 32" version="1.1" xmlns="http://www.w3.org/2000/svg" xmlns:xlink="http://www.w3.org/1999/xlink" xml:space="preserve" xmlns:serif="http://www.serif.com/" style="fill-rule:evenodd;clip-rule:evenodd;stroke-linecap:round;stroke-linejoin:round;stroke-miterlimit:1.5;">
    <rect id="Artboard1" x="0" y="0" width="32" height="32" style="fill:none;"/>
    <g id="Artboard11" serif:id="Artboard1">
        <g transform="matrix(1,0,0,1,17.7567,-3.75761)">
            <circle cx="-2.079" cy="19.435" r="15.677"/>
        </g>
        <path d="M15.506,0.001C15.563,0 15.62,0 15.677,0C24.33,0 31.355,7.025 31.355,15.677C31.355,24.33 24.33,31.355 15.677,31.355C15.62,31.355 15.563,31.355 15.506,31.354L15.506,0.001Z" style="fill:rgb(235,132,1);"/>
        <g transform="matrix(0.131772,0,0,0.131772,-73.473,71.6145)">
            <path d="M664,-384L664,-366L648,-366L648,-358L709,-358L709,-366L693,-366L693,-384L766.86,-384C768.041,-384 769,-384.959 769,-386.14L769,-488.86C769,-490.041 768.041,-491 766.86,-491L591.14,-491C589.959,-491 589,-490.041 589,-488.86L589,-386.14C589,-384.959 589.959,-384 591.14,-384L664,-384ZM763,-486L595,-486L595,-389L763,-389L763,-486Z" style="fill:white;"/>
        </g>
        <g transform="matrix(0.131772,0,0,0.131772,-73.473,71.6145)">
            <path d="M644.477,-482L679,-482L679,-392L598,-392L598,-436.011C623.254,-436.531 643.693,-456.807 644.477,-482Z" style="fill:rgb(235,187,1);"/>
        </g>
        <g transform="matrix(0.135705,0,0,0.135705,-76.9929,73.1957)">
            <circle cx="685.5" cy="-435.5" r="33.5" style="fill:white;stroke:rgb(21,12,0);stroke-width:7.37px;"/>
        </g>
        <g transform="matrix(0.131772,0,0,0.131772,-73.473,71.6145)">
            <path d="M687.75,-460.515C697.368,-457.035 704.25,-447.815 704.25,-437C704.25,-423.202 693.048,-412 679.25,-412C665.452,-412 654.25,-423.202 654.25,-437C654.25,-447.815 661.132,-457.035 670.75,-460.515L670.75,-453.994C664.526,-450.873 660.25,-444.432 660.25,-437C660.25,-426.514 668.764,-418 679.25,-418C689.736,-418 698.25,-426.514 698.25,-437C698.25,-444.432 693.974,-450.873 687.75,-453.994L687.75,-460.515Z" style="fill:rgb(3,2,0);"/>
        </g>
        <g transform="matrix(0.131772,0,0,0.123536,-73.44,67.9084)">
            <path d="M683,-461.733C683,-464.088 681.208,-466 679,-466C676.792,-466 675,-464.088 675,-461.733L675,-438.267C675,-435.912 676.792,-434 679,-434C681.208,-434 683,-435.912 683,-438.267L683,-461.733Z" style="fill:rgb(3,2,0);"/>
        </g>
    </g>
</svg>
