<?xml version="1.0" encoding="UTF-8" standalone="no"?>
<!DOCTYPE svg PUBLIC "-//W3C//DTD SVG 1.1//EN" "http://www.w3.org/Graphics/SVG/1.1/DTD/svg11.dtd">
<svg width="100%" height="100%" viewBox="0 0 95 95" version="1.1" xmlns="http://www.w3.org/2000/svg" xmlns:xlink="http://www.w3.org/1999/xlink" xml:space="preserve" xmlns:serif="http://www.serif.com/" style="fill-rule:evenodd;clip-rule:evenodd;stroke-linejoin:round;stroke-miterlimit:2;">
    <g transform="matrix(1,0,0,1,-378.124,-1465.97)">
        <g transform="matrix(1,0,0,1,-2188,50)">
            <g transform="matrix(0.185425,0,0,0.185425,2571.87,1026.21)">
                <path d="M2,2517C42.648,2553.3 83.996,2552.53 126,2517C144.222,2530.43 156.156,2548.43 159,2573L159,2599C157.078,2609.43 151.308,2613.73 143,2614L-15,2614C-22.251,2613.11 -27.866,2609.56 -31,2602L-31,2574C-28.519,2550.45 -17.486,2531.47 2,2517ZM324,2517C364.648,2553.3 405.996,2552.53 448,2517C466.222,2530.43 478.156,2548.43 481,2573L481,2599C479.078,2609.43 473.308,2613.73 465,2614L307,2614C299.749,2613.11 294.134,2609.56 291,2602L291,2574C293.481,2550.45 304.514,2531.47 324,2517ZM211,2313L146,2313C138.749,2312.11 133.134,2308.56 130,2301L130,2273C132.481,2249.45 143.514,2230.47 163,2216C203.648,2252.3 244.996,2251.53 287,2216C305.222,2229.43 317.156,2247.43 320,2272L320,2298C318.078,2308.43 312.308,2312.73 304,2313L241,2313L241,2375.45C259.384,2381.64 272.694,2398.91 272.995,2419.29L335.722,2439.28C343.606,2419.22 363.156,2405 386,2405C415.803,2405 440,2429.2 440,2459C440,2488.8 415.803,2513 386,2513C359.94,2513 338.167,2494.5 333.109,2469.93L263.844,2447.86C255.284,2459.47 241.515,2467 226,2467C210.485,2467 196.716,2459.47 188.156,2447.86L116.746,2470.61C111.43,2494.84 89.819,2513 64,2513C34.197,2513 10,2488.8 10,2459C10,2429.2 34.197,2405 64,2405C87.059,2405 106.761,2419.48 114.498,2439.84L179.005,2419.29C179.307,2398.9 192.618,2381.64 211,2375.45L211,2313ZM227,2102C258.459,2102 284,2127.54 284,2159C284,2190.46 258.459,2216 227,2216C195.541,2216 170,2190.46 170,2159C170,2127.54 195.541,2102 227,2102Z" style="fill:white;"/>
            </g>
        </g>
    </g>
</svg>
