<?xml version="1.0" encoding="UTF-8" standalone="no"?>
<!DOCTYPE svg PUBLIC "-//W3C//DTD SVG 1.1//EN" "http://www.w3.org/Graphics/SVG/1.1/DTD/svg11.dtd">
<svg width="100%" height="100%" viewBox="0 0 126 112" version="1.1" xmlns="http://www.w3.org/2000/svg" xmlns:xlink="http://www.w3.org/1999/xlink" xml:space="preserve" xmlns:serif="http://www.serif.com/" style="fill-rule:evenodd;clip-rule:evenodd;stroke-linejoin:round;stroke-miterlimit:2;">
    <g transform="matrix(1,0,0,1,3531.36,-1658.83)">
        <path d="M-3416.65,1744.6L-3405.85,1744.6L-3405.85,1732.46L-3416.65,1732.46L-3416.65,1720.88L-3405.85,1720.88L-3405.85,1708.74L-3416.65,1708.74L-3416.65,1694.96L-3405.85,1694.96L-3405.85,1682.83L-3416.65,1682.83L-3416.65,1671.61C-3416.65,1664.56 -3422.38,1658.83 -3429.43,1658.83L-3518.58,1658.83C-3525.63,1658.83 -3531.36,1664.56 -3531.36,1671.61L-3531.36,1758.01C-3531.36,1765.06 -3525.63,1770.79 -3518.58,1770.79L-3429.43,1770.79C-3422.38,1770.79 -3416.65,1765.06 -3416.65,1758.01L-3416.65,1744.6ZM-3430.54,1670.82L-3517.88,1670.82L-3517.88,1757.04L-3430.54,1757.04L-3430.54,1670.82ZM-3474.6,1719.3L-3505.25,1719.3L-3505.25,1745.04L-3474.6,1745.04L-3474.6,1719.3ZM-3442.98,1707.5L-3468.61,1707.5L-3468.61,1745.04L-3442.98,1745.04L-3442.98,1707.5ZM-3474.6,1683.38L-3505.25,1683.38L-3505.25,1714.81L-3474.6,1714.81L-3474.6,1683.38ZM-3442.98,1683.38L-3468.61,1683.38L-3468.61,1701.1L-3442.98,1701.1L-3442.98,1683.38Z" style="fill:white;"/>
    </g>
</svg>
