<?xml version="1.0" encoding="UTF-8" standalone="no"?>
<!DOCTYPE svg PUBLIC "-//W3C//DTD SVG 1.1//EN" "http://www.w3.org/Graphics/SVG/1.1/DTD/svg11.dtd">
<svg width="100%" height="100%" viewBox="0 0 80 80" version="1.1" xmlns="http://www.w3.org/2000/svg" xmlns:xlink="http://www.w3.org/1999/xlink" xml:space="preserve" xmlns:serif="http://www.serif.com/" style="fill-rule:evenodd;clip-rule:evenodd;stroke-linejoin:round;stroke-miterlimit:2;">
    <g transform="matrix(1,0,0,1,-2452.4,-2279.2)">
        <g transform="matrix(0.467836,0,0,0.467836,2424.8,973.937)">
            <path d="M199.581,2940.87C184.697,2953.43 165.475,2961 144.5,2961C138.785,2961 133.201,2960.44 127.797,2959.37L168,2887L199.581,2940.87ZM144.5,2901L113.366,2955.14C89.356,2945.74 70.618,2925.79 62.874,2901L144.5,2901ZM228.406,2859C229.452,2864.34 230,2869.86 230,2875.5C230,2897.26 221.851,2917.14 208.438,2932.24L167,2859L228.406,2859ZM126,2892L60.594,2892C59.548,2886.66 59,2881.14 59,2875.5C59,2853.37 67.423,2833.2 81.239,2818.01L126,2892ZM91.862,2808.14C106.375,2796.78 124.652,2790 144.5,2790C150.97,2790 157.272,2790.72 163.335,2792.09L123,2862L91.862,2808.14ZM177.052,2796.43C200.005,2805.89 217.946,2825.07 225.749,2848.83L144.5,2848L177.052,2796.43Z" style="fill:white;"/>
        </g>
    </g>
</svg>
