<?xml version="1.0" encoding="UTF-8" standalone="no"?>
<!DOCTYPE svg PUBLIC "-//W3C//DTD SVG 1.1//EN" "http://www.w3.org/Graphics/SVG/1.1/DTD/svg11.dtd">
<svg width="100%" height="100%" viewBox="0 0 330 101" version="1.1" xmlns="http://www.w3.org/2000/svg" xmlns:xlink="http://www.w3.org/1999/xlink" xml:space="preserve" xmlns:serif="http://www.serif.com/" style="fill-rule:evenodd;clip-rule:evenodd;stroke-linecap:round;stroke-linejoin:round;stroke-miterlimit:1.5;">
    <g transform="matrix(1,0,0,1,-218,-2812.23)">
        <g transform="matrix(1,0,0,1,-2188,50)">
            <g transform="matrix(1,0,0,1,82,-14.0306)">
                <g transform="matrix(0.635453,0,0,0.635453,1950.41,3088.27)">
                    <path d="M664,-384L664,-366L648,-366L648,-358L709,-358L709,-366L693,-366L693,-384L766.86,-384C768.041,-384 769,-384.959 769,-386.14L769,-488.86C769,-490.041 768.041,-491 766.86,-491L591.14,-491C589.959,-491 589,-490.041 589,-488.86L589,-386.14C589,-384.959 589.959,-384 591.14,-384L664,-384ZM763,-486L595,-486L595,-389L763,-389L763,-486Z" style="fill:white;"/>
                </g>
                <g transform="matrix(0.635453,0,0,0.635453,1950.41,3088.27)">
                    <path d="M644.477,-482L679,-482L679,-392L598,-392L598,-436.011C623.254,-436.531 643.693,-456.807 644.477,-482Z" style="fill:white;"/>
                </g>
                <g transform="matrix(0.654422,0,0,0.654422,1933.44,3095.89)">
                    <circle cx="685.5" cy="-435.5" r="33.5" style="fill:white;stroke:rgb(235,132,0);stroke-width:1.53px;"/>
                </g>
                <g transform="matrix(0.635453,0,0,0.635453,1950.41,3088.27)">
                    <path d="M687.75,-460.515C697.368,-457.035 704.25,-447.815 704.25,-437C704.25,-423.202 693.048,-412 679.25,-412C665.452,-412 654.25,-423.202 654.25,-437C654.25,-447.815 661.132,-457.035 670.75,-460.515L670.75,-453.994C664.526,-450.873 660.25,-444.432 660.25,-437C660.25,-426.514 668.764,-418 679.25,-418C689.736,-418 698.25,-426.514 698.25,-437C698.25,-444.432 693.974,-450.873 687.75,-453.994L687.75,-460.515Z" style="fill:rgb(235,132,0);"/>
                </g>
                <g transform="matrix(0.635453,0,0,0.595737,1950.57,3070.39)">
                    <path d="M683,-461.733C683,-464.088 681.208,-466 679,-466C676.792,-466 675,-464.088 675,-461.733L675,-438.267C675,-435.912 676.792,-434 679,-434C681.208,-434 683,-435.912 683,-438.267L683,-461.733Z" style="fill:rgb(235,132,0);"/>
                </g>
                <g transform="matrix(0.635453,0,0,0.635453,1950.13,3088.27)">
                    <path d="M1013.05,-468.71L1013.05,-359.238L986.443,-359.238L986.443,-491L1107.66,-491L1107.66,-468.71L1068.66,-468.71L1068.66,-359.238L1042.05,-359.238L1042.05,-468.71L1013.05,-468.71Z" style="fill:white;fill-rule:nonzero;"/>
                </g>
                <g transform="matrix(0.635453,0,0,0.635453,1950.41,3088.27)">
                    <path d="M866.27,-359.238L854.766,-389.168L802.097,-389.168L791.222,-359.238L763,-359.238L814.321,-491L842.453,-491L869.412,-423.67L869.412,-491L896.016,-491L896.016,-439.14L948.146,-439.14L948.146,-491L974.75,-491L974.75,-359.238L948.146,-359.238L948.146,-416.85L896.016,-416.85L896.016,-359.238L866.27,-359.238ZM846.227,-411.368L828.072,-460.262L810.276,-411.368L846.227,-411.368Z" style="fill:white;fill-rule:nonzero;"/>
                </g>
                <g transform="matrix(0.612271,0,0,0.612271,1957.83,3057.15)">
                    <text x="598.059px" y="-294.959px" style="font-family:'Arial-Black', 'Arial Black', sans-serif;font-weight:900;font-size:24px;fill:white;">WHERE TECHNOL<tspan x="832.293px 852.286px " y="-294.959px -294.959px ">OG</tspan>Y MEETS B<tspan x="1016.98px 1036.97px " y="-294.959px -294.959px ">US</tspan>INESS</text>
                </g>
            </g>
        </g>
    </g>
</svg>
