<?xml version="1.0" encoding="UTF-8" standalone="no"?>
<!DOCTYPE svg PUBLIC "-//W3C//DTD SVG 1.1//EN" "http://www.w3.org/Graphics/SVG/1.1/DTD/svg11.dtd">
<svg width="100%" height="100%" viewBox="0 0 78 56" version="1.1" xmlns="http://www.w3.org/2000/svg" xmlns:xlink="http://www.w3.org/1999/xlink" xml:space="preserve" xmlns:serif="http://www.serif.com/" style="fill-rule:evenodd;clip-rule:evenodd;stroke-linejoin:round;stroke-miterlimit:2;">
    <g transform="matrix(1,0,0,1,-1248.02,-915.598)">
        <g transform="matrix(1,0,0,1,-2188,50)">
            <g transform="matrix(0.151982,0,0,0.151982,3586.64,601.458)">
                <path d="M-851,1984.5C-851,1972.08 -861.082,1962 -873.5,1962L-918.5,1962C-930.918,1962 -941,1972.08 -941,1984.5L-941,2029.5C-941,2041.92 -930.918,2052 -918.5,2052L-873.5,2052C-861.082,2052 -851,2041.92 -851,2029.5L-851,1984.5Z" style="fill:rgb(252,129,35);fill-opacity:0.33;"/>
                <g transform="matrix(1,0,0,1,108,0.5)">
                    <path d="M-851,1984.5C-851,1972.08 -861.082,1962 -873.5,1962L-918.5,1962C-930.918,1962 -941,1972.08 -941,1984.5L-941,2029.5C-941,2041.92 -930.918,2052 -918.5,2052L-873.5,2052C-861.082,2052 -851,2041.92 -851,2029.5L-851,1984.5Z" style="fill:rgb(252,129,35);fill-opacity:0.33;"/>
                </g>
                <g transform="matrix(1,0,0,1,215,0)">
                    <path d="M-851,1984.5C-851,1972.08 -861.082,1962 -873.5,1962L-918.5,1962C-930.918,1962 -941,1972.08 -941,1984.5L-941,2029.5C-941,2041.92 -930.918,2052 -918.5,2052L-873.5,2052C-861.082,2052 -851,2041.92 -851,2029.5L-851,1984.5Z" style="fill:rgb(252,129,35);fill-opacity:0.33;"/>
                </g>
                <g transform="matrix(1,0,0,1,322,0)">
                    <path d="M-851,1984.5C-851,1972.08 -861.082,1962 -873.5,1962L-918.5,1962C-930.918,1962 -941,1972.08 -941,1984.5L-941,2029.5C-941,2041.92 -930.918,2052 -918.5,2052L-873.5,2052C-861.082,2052 -851,2041.92 -851,2029.5L-851,1984.5Z" style="fill:rgb(252,129,35);fill-opacity:0.33;"/>
                </g>
                <path d="M-991,2078L-991,1933L-942,1756C-938.497,1743.81 -930.395,1737.95 -917,1738L-556,1738C-540.438,1737.51 -530.932,1742.7 -529,1755L-479,1930L-479,2079C-478.675,2096.73 -491.315,2102.94 -512,2102L-966,2102C-981.989,2102.46 -991.619,2095.89 -991,2078ZM-512,1945L-958,1945L-958,2070L-512,2070L-512,1945Z" style="fill:rgb(252,129,35);fill-opacity:0.33;"/>
            </g>
        </g>
    </g>
</svg>
